<svg xmlns="http://www.w3.org/2000/svg" viewBox="0 0 180 180">
  <defs>
    <linearGradient id="bgGrad" x1="0%" y1="0%" x2="100%" y2="100%">
      <stop offset="0%" style="stop-color:#8B5A2B;stop-opacity:1" />
      <stop offset="100%" style="stop-color:#5D4037;stop-opacity:1" />
    </linearGradient>
    <linearGradient id="lockGradient" x1="0%" y1="0%" x2="100%" y2="100%">
      <stop offset="0%" style="stop-color:#C9A86C;stop-opacity:1" />
      <stop offset="100%" style="stop-color:#A67C52;stop-opacity:1" />
    </linearGradient>
  </defs>
  
  <!-- Background -->
  <rect width="180" height="180" rx="40" fill="url(#bgGrad)" />
  
  <!-- Note/Paper shape -->
  <path d="M40 50 L140 50 L140 140 L115 140 L115 165 L40 165 Z" fill="#F5F2EB" opacity="0.95"/>
  <path d="M115 140 L115 165 L140 140 Z" fill="#D4CFC4"/>
  
  <!-- Lock body -->
  <rect x="70" y="95" width="40" height="32" rx="5" fill="url(#lockGradient)"/>
  
  <!-- Lock shackle -->
  <path d="M78 95 L78 82 C78 70 90 62 90 62 C90 62 102 70 102 82 L102 95" 
        fill="none" stroke="url(#lockGradient)" stroke-width="8" stroke-linecap="round"/>
  
  <!-- Text lines -->
  <line x1="52" y1="70" x2="100" y2="70" stroke="#8B5A2B" stroke-width="5" stroke-linecap="round" opacity="0.3"/>
  <line x1="52" y1="85" x2="65" y2="85" stroke="#8B5A2B" stroke-width="5" stroke-linecap="round" opacity="0.3"/>
</svg>
